<!--icon666.com - MILLIONS vector ICONS FREE--><svg id="Layer_1" enable-background="new 0 0 32 32" viewBox="0 0 32 32" xmlns="http://www.w3.org/2000/svg"><path d="m19.881 24.119c-.534 0-1.036-.208-1.414-.586-.78-.78-.78-2.048 0-2.828l2.705-2.705h-15.172c-1.103 0-2-.897-2-2s.897-2 2-2h15.172l-2.705-2.705c-.78-.78-.78-2.048 0-2.828.378-.378.88-.586 1.414-.586s1.036.208 1.414.586l6.119 6.119c.378.378.586.88.586 1.414s-.208 1.036-.586 1.414l-6.119 6.119c-.378.378-.88.586-1.414.586z" fill="#000000" style="fill: rgb(255, 255, 255);"/></svg>